# xmcd
#
# Track frame offsets: 
#        150
#        6842
#        18230
#        32182
#        43722
#        53812
#        64145
#        71427
#        79505
#        91942
#        99945
#        115322
#        123105
#        137567
#        146520
#        154992
#        166652
#        178642
#
# Disc length: 2585 seconds
#
# Revision: 0
# Processed by: cddbd v1.5.2PL0 Copyright (c) Steve Scherf et al.
# Submitted via: ExactAudioCopyFreeDBPlugin 1.0
#
DISCID=e00a1712
DTITLE=Jim Reeves - Jim Reeves Legend of Country
DYEAR=1900
DGENRE=Country
TTITLE0=Have I Told You Lately That
TTITLE1=Just Call Me Lonesome
TTITLE2=Hows The World Treating You
TTITLE3=If Heartaches Are The Fasion
TTITLE4=Home
TTITLE5=Dear Hearts And Gentle
TTITLE6=I'm Beginning To Forget
TTITLE7=Roly Poly
TTITLE8=Your Old Love Letters
TTITLE9=Till The End Of The World
TTITLE10=Making Believe
TTITLE11=The Oklahoma Hills
TTITLE12=The Highway To Nowhere
TTITLE13=If You Were Mine
TTITLE14=Everywhere You Go
TTITLE15=I Love You More
TTITLE16=I've Lived A Lot In My Time
TTITLE17=The Blizzard
EXTD=
EXTT0=
EXTT1=
EXTT2=
EXTT3=
EXTT4=
EXTT5=
EXTT6=
EXTT7=
EXTT8=
EXTT9=
EXTT10=
EXTT11=
EXTT12=
EXTT13=
EXTT14=
EXTT15=
EXTT16=
EXTT17=
PLAYORDER=
